HIERARCHY
ROOT root
{
	OFFSET 0.000000 0.000000 0.000000
	CHANNELS 6 Xposition Yposition Zposition Zrotation Yrotation Xrotation
	JOINT lhip
	{
		OFFSET 0.058581 -0.082280 -0.017664
		CHANNELS 3 Zrotation Yrotation Xrotation
		JOINT lknee
		{
			OFFSET 0.043451 -0.386469 0.008037
			CHANNELS 3 Zrotation Yrotation Xrotation
			JOINT lankle
			{
				OFFSET -0.014790 -0.426874 -0.037428
				CHANNELS 3 Zrotation Yrotation Xrotation
				JOINT ltoe
				{
					OFFSET 0.041054 -0.060286 0.122042
					CHANNELS 3 Zrotation Yrotation Xrotation
					End Site
					{
						OFFSET 0.000000 0.000000 0.000000
					}
				}
			}
		}
	}
	JOINT rhip
	{
		OFFSET -0.060310 -0.090513 -0.013543
		CHANNELS 3 Zrotation Yrotation Xrotation
		JOINT rknee
		{
			OFFSET -0.043257 -0.383688 -0.004843
			CHANNELS 3 Zrotation Yrotation Xrotation
			JOINT rankle
			{
				OFFSET 0.019056 -0.420046 -0.034562
				CHANNELS 3 Zrotation Yrotation Xrotation
				JOINT rtoe
				{
					OFFSET -0.034840 -0.062106 0.130323
					CHANNELS 3 Zrotation Yrotation Xrotation
					End Site
					{
						OFFSET 0.000000 0.000000 0.000000
					}
				}
			}
		}
	}
	JOINT lowerback
	{
		OFFSET 0.004439 0.124404 -0.038385
		CHANNELS 3 Zrotation Yrotation Xrotation
		JOINT upperback
		{
			OFFSET 0.004488 0.137956 0.026820
			CHANNELS 3 Zrotation Yrotation Xrotation
			JOINT chest
			{
				OFFSET -0.002265 0.056032 0.002855
				CHANNELS 3 Zrotation Yrotation Xrotation
				JOINT lowerneck
				{
					OFFSET -0.013390 0.211636 -0.033468
					CHANNELS 3 Zrotation Yrotation Xrotation
					JOINT upperneck
					{
						OFFSET 0.010113 0.088937 0.050410
						CHANNELS 3 Zrotation Yrotation Xrotation
						End Site
						{
							OFFSET 0.000000 0.000000 0.000000
						}
					}
				}
				JOINT lclavicle
				{
					OFFSET 0.071702 0.114000 -0.018898
					CHANNELS 3 Zrotation Yrotation Xrotation
					JOINT lshoulder
					{
						OFFSET 0.122921 0.045205 -0.019046
						CHANNELS 3 Zrotation Yrotation Xrotation
						JOINT lelbow
						{
							OFFSET 0.255332 -0.015649 -0.022946
							CHANNELS 3 Zrotation Yrotation Xrotation
							JOINT lwrist
							{
								OFFSET 0.265709 0.012698 -0.007375
								CHANNELS 3 Zrotation Yrotation Xrotation
								End Site
								{
									OFFSET 0.000000 0.000000 0.000000
								}
							}
						}
					}
				}
				JOINT rclavicle
				{
					OFFSET -0.082954 0.112472 -0.023707
					CHANNELS 3 Zrotation Yrotation Xrotation
					JOINT rshoulder
					{
						OFFSET -0.113228 0.046853 -0.008472
						CHANNELS 3 Zrotation Yrotation Xrotation
						JOINT relbow
						{
							OFFSET -0.260127 -0.014369 -0.031269
							CHANNELS 3 Zrotation Yrotation Xrotation
							JOINT rwrist
							{
								OFFSET -0.269108 0.006794 -0.006027
								CHANNELS 3 Zrotation Yrotation Xrotation
								End Site
								{
									OFFSET 0.000000 0.000000 0.000000
								}
							}
						}
					}
				}
			}
		}
	}
}
MOTION
Frames: 18
Frame Time: 0.033333
-0.493771 0.209417 1.005849 92.135823 -1.640705 86.766407 -0.837277 1.126825 2.546006 -3.695250 -4.846707 7.397289 1.117908 10.920346 -9.747970 0.000000 -0.000000 0.000000 -0.983870 -3.382096 -5.464209 0.158692 -5.174229 13.999683 1.285037 -8.826937 -7.207137 0.000000 -0.000000 0.000000 -0.521388 0.086771 2.528742 1.402513 -2.868605 6.245692 -1.286190 -0.323777 -2.995407 0.768048 5.929306 13.051238 1.288908 7.009809 22.814324 -26.578868 3.689709 -0.764981 -57.980393 -8.105818 18.113807 3.971013 -22.899484 4.789048 7.210343 -11.580966 2.809916 27.404338 0.242125 -0.241309 55.080726 8.977219 16.749404 -5.910793 16.132529 0.095206 4.750318 7.908283 3.536348 
-0.496128 0.213473 1.006566 92.495692 -1.354142 87.021701 -0.665934 1.005057 2.559597 -3.750307 -5.310536 6.525631 1.213877 10.807978 -9.363347 0.000000 -0.000000 0.000000 -1.110021 -3.464522 -5.298617 0.563561 -5.237965 12.928729 1.585595 -9.223992 -6.638884 0.000000 -0.000000 0.000000 -0.670847 0.022377 2.449979 1.521547 -3.113558 6.245631 -1.062203 -0.313970 -2.979464 0.638805 6.049119 12.917077 1.474203 6.793350 22.649988 -26.533678 3.647487 -0.875273 -57.921883 -8.780022 17.737356 2.616731 -21.848724 5.171642 0.613986 -10.145872 1.617101 27.570937 0.225879 -0.481236 55.105353 8.848140 16.881341 -6.496109 16.133502 0.015092 7.358993 7.180542 4.360470 
-0.498502 0.216529 1.007303 92.304922 -1.165963 87.111008 -0.570821 0.897116 2.680816 -3.863460 -5.410378 6.062893 1.155052 10.734206 -9.103804 0.000000 -0.000000 0.000000 -1.207665 -3.396992 -5.223844 0.727868 -5.349075 12.241310 1.711160 -9.184704 -6.138960 0.000000 -0.000000 0.000000 -1.069682 0.236168 2.420949 1.617839 -3.067224 6.447014 -0.808823 -0.217124 -3.079792 0.770068 6.305504 12.978251 1.602582 6.397625 22.344380 -26.439187 3.322748 -0.646379 -57.756776 -9.469700 17.277145 1.932032 -21.350924 5.067825 -3.173151 -9.752964 1.153744 27.685367 0.543086 -0.268722 55.347824 8.697369 16.676928 -6.850440 16.364565 -0.558496 8.104222 7.049020 4.433043 
-0.500203 0.220076 1.007562 91.802256 -0.816125 87.142676 -0.515904 1.033148 3.030592 -3.710420 -5.131709 5.330819 1.443055 10.677332 -9.009479 0.000000 -0.000000 0.000000 -1.184402 -3.680586 -5.185270 0.834785 -5.291208 11.853969 2.137192 -8.775989 -5.855089 0.000000 -0.000000 0.000000 -1.291917 0.613522 2.319302 1.616178 -2.947693 6.903469 -0.674691 -0.119140 -3.262704 0.869602 6.400327 13.044762 1.791991 6.237816 22.274521 -26.184671 2.875187 -0.328952 -57.509850 -9.661965 17.042953 2.006393 -22.131513 4.687290 -2.951632 -9.676545 1.180425 27.743588 0.962490 0.214448 55.936420 8.662838 16.694611 -7.024801 16.271350 -0.664361 8.194343 6.981580 4.387128 
-0.501574 0.222130 1.007483 91.284697 -0.638808 87.151785 -0.545911 1.110158 3.258959 -3.613108 -4.996179 4.857981 1.543139 10.865994 -9.034100 0.000000 -0.000000 0.000000 -1.175577 -3.572725 -5.326879 0.918219 -5.221280 11.875741 2.307643 -8.547015 -5.718018 0.000000 -0.000000 0.000000 -1.427629 0.785855 2.449482 1.604236 -2.706639 6.994263 -0.608640 -0.041734 -3.334453 0.888209 6.468303 13.037641 1.848860 6.350729 22.366563 -26.101342 2.824888 -0.462279 -57.211667 -9.729013 17.025422 1.827724 -22.374897 4.683592 -2.872323 -9.748079 1.200673 27.848140 1.143880 0.364410 56.142256 8.726872 16.864892 -6.786573 16.207175 -0.692332 8.222174 7.210456 4.353931 
-0.502854 0.224503 1.007498 90.654451 -0.400965 87.159938 -0.498721 1.146320 3.572008 -3.502448 -4.731544 4.227142 1.646604 10.940072 -8.991741 0.000000 -0.000000 0.000000 -1.109940 -3.548833 -5.397046 1.015798 -5.026228 11.713021 2.376918 -8.255761 -5.399993 0.000000 -0.000000 0.000000 -1.535077 0.984796 2.662303 1.535859 -2.518593 6.931548 -0.582838 0.133149 -3.413176 0.890664 6.611521 13.194472 1.839037 6.426166 22.573872 -26.114879 2.780417 -0.356867 -56.632434 -9.719746 16.912870 1.808851 -22.830449 4.644312 -2.768577 -9.758818 1.233328 28.076368 1.244914 0.632568 56.482926 8.653641 17.105435 -6.713115 16.452537 -0.423364 8.192542 7.022522 4.296054 
-0.504065 0.226956 1.007506 90.431958 -0.266752 87.245918 -0.512334 1.174490 3.663711 -3.439552 -4.829050 3.814757 1.712547 10.951762 -8.852244 0.000000 -0.000000 0.000000 -1.128287 -3.567771 -5.599999 1.004205 -5.114762 11.708709 2.541277 -8.213958 -5.218903 0.000000 -0.000000 0.000000 -1.743303 1.019012 2.720499 1.488009 -2.407212 6.849211 -0.542247 0.128727 -3.319921 0.862586 6.827923 13.333451 1.901266 6.545485 22.620655 -26.062623 2.888096 -0.541606 -56.342138 -9.877962 16.793037 1.919822 -22.524601 4.567781 -2.817077 -9.717507 1.366078 28.210402 1.204457 0.638253 56.921520 8.613719 17.358621 -6.570657 16.670078 -0.031575 8.302640 7.119589 4.478408 
-0.504949 0.229300 1.007328 90.113681 -0.115524 87.280508 -0.472246 1.237677 3.722156 -3.466718 -4.713605 3.599755 1.755331 10.956279 -8.774142 0.000000 -0.000000 0.000000 -1.188624 -3.486751 -5.710314 1.125809 -5.084383 11.711779 2.711012 -8.043759 -5.138181 0.000000 -0.000000 0.000000 -1.821085 1.086967 2.541791 1.409261 -2.351751 7.187145 -0.592891 0.201264 -3.318681 0.997322 7.077732 13.421916 1.791731 6.570056 22.731831 -25.940490 2.828290 -0.649428 -56.241421 -9.951328 16.602156 2.392101 -21.928423 4.052194 -3.090978 -9.724097 1.656747 28.340354 1.314609 0.758717 57.322211 8.684653 17.531285 -6.426040 16.702106 0.155888 8.446294 7.228958 4.714088 
-0.505586 0.231855 1.007233 90.220620 0.000604 87.343258 -0.441554 1.249096 3.657779 -3.571302 -4.822219 3.471707 1.822183 10.993593 -8.649119 0.000000 -0.000000 0.000000 -1.220412 -3.420617 -5.705986 1.150292 -5.081104 11.542999 2.716480 -8.206315 -4.944419 0.000000 -0.000000 0.000000 -1.839555 0.968157 2.804315 1.316224 -2.436612 6.858327 -0.609200 0.205917 -3.270696 0.848229 7.214879 13.476166 1.885209 6.778797 22.859905 -25.921005 2.821927 -0.656294 -56.002794 -9.951770 16.413248 2.565686 -21.107610 3.692793 -3.201990 -9.640185 1.532222 28.352310 1.214394 0.817234 57.759280 8.552757 17.692515 -6.320507 17.008062 0.473551 8.532966 7.164086 4.658191 
-0.505704 0.234857 1.007166 90.290125 0.076034 87.353522 -0.532761 1.362161 3.614019 -3.574408 -4.881137 3.470629 1.916497 10.997345 -8.578571 0.000000 -0.000000 0.000000 -1.271962 -3.417448 -5.771928 1.075949 -5.198298 11.607952 2.694208 -8.315493 -4.781825 0.000000 -0.000000 0.000000 -1.934322 0.992328 2.703381 1.321251 -2.490141 7.160509 -0.623515 0.223342 -3.403889 0.656800 7.215113 13.674117 1.955666 6.889414 22.740512 -26.011630 2.476850 -0.614335 -55.851850 -9.989529 16.327572 2.904751 -19.684970 3.100684 -3.307109 -9.685041 1.887500 28.406298 1.266587 0.700391 57.934957 8.113157 17.735415 -6.205253 17.545770 0.719124 8.171002 7.533046 5.083982 
-0.505757 0.236871 1.007029 90.255337 0.159920 87.412627 -0.585946 1.278420 3.570922 -3.544934 -4.852837 3.448829 1.937042 11.052844 -8.617761 0.000000 -0.000000 0.000000 -1.319525 -3.360902 -5.738569 1.130583 -5.143489 11.437377 2.796780 -8.358662 -4.704387 0.000000 -0.000000 0.000000 -1.972545 0.979780 2.784506 1.272613 -2.574334 7.009979 -0.582868 0.186143 -3.262656 0.614324 7.366525 13.580591 1.935613 6.959536 22.791347 -25.939745 2.508659 -0.619006 -55.880289 -9.950634 16.208844 3.103177 -18.820683 3.053163 -3.399739 -9.456253 2.020145 28.435137 1.257266 0.850415 58.018688 8.294568 17.870085 -6.135937 17.619927 0.995080 8.131581 7.314711 5.216601 
-0.505934 0.238975 1.006909 90.238724 0.225181 87.417629 -0.660745 1.314200 3.553439 -3.518028 -4.860561 3.406879 1.963067 11.056887 -8.532878 0.000000 -0.000000 0.000000 -1.398067 -3.271361 -5.763946 1.154563 -5.171230 11.462039 2.846984 -8.348645 -4.675809 0.000000 -0.000000 0.000000 -2.009727 0.994612 2.825237 1.330851 -2.498811 7.082512 -0.540978 0.169255 -3.257517 0.571874 7.387782 13.654858 1.883607 6.919130 22.796927 -25.987602 2.354613 -0.492998 -55.852104 -9.884432 16.128197 3.177287 -18.211823 2.858013 -3.493296 -9.500400 2.200165 28.434978 1.424494 0.760092 57.901845 8.219179 17.819493 -6.244785 17.583012 0.822314 7.966222 7.495600 5.354612 
-0.504670 0.240683 1.006714 90.259354 0.320887 87.508725 -0.646947 1.415007 3.513778 -3.531409 -4.888997 3.437215 1.996016 11.059598 -8.601744 0.000000 -0.000000 0.000000 -1.374348 -3.400559 -5.740645 1.155469 -5.033879 11.414425 2.907740 -8.358264 -4.776347 0.000000 -0.000000 0.000000 -1.954096 0.979567 2.861052 1.337173 -2.588293 6.853525 -0.542529 0.180590 -3.246487 0.395583 7.352577 13.712881 1.940804 7.103055 22.822690 -25.979756 2.659493 -0.519211 -55.865768 -9.600357 16.198966 3.108636 -17.829743 3.121901 -3.595636 -9.559808 2.188753 28.411214 1.293696 0.674297 57.866782 8.258339 17.827740 -6.209083 17.292065 0.903672 7.995349 7.461370 5.301156 
-0.504410 0.242537 1.006671 90.213420 0.400308 87.444551 -0.663432 1.373977 3.543989 -3.570198 -4.737996 3.556448 1.985821 11.023946 -8.704776 0.000000 -0.000000 0.000000 -1.395148 -3.487764 -5.728284 1.119000 -4.975535 11.530845 2.980482 -8.277504 -4.723503 0.000000 -0.000000 0.000000 -1.864830 1.025192 2.800794 1.342039 -2.599958 7.097500 -0.598276 0.199797 -3.191961 0.590283 7.382469 13.747542 1.812366 7.005445 22.803529 -26.019457 2.647410 -0.507674 -55.849488 -9.528283 16.175707 3.029707 -17.579576 3.129255 -3.498179 -9.409593 2.225178 28.502088 1.351184 0.716566 57.550187 8.593849 17.731868 -6.242869 17.144971 0.716196 7.753268 7.262878 5.570959 
-0.503207 0.244183 1.006466 90.088108 0.410590 87.447172 -0.772111 1.456348 3.663832 -3.573874 -4.749737 3.478403 2.087436 11.072585 -8.735276 0.000000 -0.000000 0.000000 -1.457125 -3.482498 -5.708281 1.070006 -4.912062 11.569746 2.949322 -8.182185 -4.771768 0.000000 -0.000000 0.000000 -1.810254 1.048974 2.786388 1.342680 -2.512058 7.088406 -0.650485 0.247909 -3.140281 0.603881 7.295603 13.777952 1.807851 6.976106 22.814904 -26.070362 2.729047 -0.432857 -55.838028 -9.315637 16.178678 2.939532 -17.605335 3.095196 -3.374507 -9.633852 2.310594 28.395836 1.447765 0.740587 57.481387 8.636584 17.642030 -6.459915 16.961397 0.364609 7.497440 7.400763 5.491410 
-0.502236 0.245479 1.006129 90.011976 0.392811 87.521611 -0.962489 1.222576 3.532670 -3.523092 -4.753292 3.613698 2.232292 11.371447 -8.804584 0.000000 -0.000000 0.000000 -1.528796 -3.450104 -5.801851 1.045911 -4.878107 11.726232 2.941421 -8.229348 -4.964779 0.000000 -0.000000 0.000000 -1.778315 1.146923 2.653846 1.305668 -2.504379 7.176608 -0.705028 0.200567 -3.076496 0.642609 7.365967 13.750369 1.858542 7.040096 22.854771 -26.001028 2.973198 -0.524750 -55.945629 -9.154589 16.228971 2.803417 -17.783924 3.193499 -3.416883 -9.598449 2.291833 28.422731 1.401501 0.625514 57.297746 8.853995 17.622246 -6.457831 16.778429 0.232455 7.452086 7.402425 5.638441 
-0.501091 0.247081 1.005966 90.032631 0.483061 87.534459 -1.008125 1.212396 3.442825 -3.522181 -4.737496 3.906107 2.212299 11.440224 -9.032800 0.000000 -0.000000 0.000000 -1.497735 -3.500096 -5.769203 0.956365 -4.841195 11.795393 2.934343 -8.132824 -4.985665 0.000000 -0.000000 0.000000 -1.565839 1.178192 2.752664 1.318546 -2.500508 7.144598 -0.763804 0.301139 -3.170688 0.534473 7.073348 13.877804 1.828113 6.957393 22.819207 -26.073593 2.994262 -0.516445 -56.097607 -8.994458 16.327547 2.760634 -17.757020 3.166037 -3.328082 -9.600927 2.235305 28.272934 1.377518 0.525298 57.126907 8.756931 17.482683 -6.574524 16.862862 0.028541 7.352091 7.472253 5.457813 
-0.500128 0.248782 1.005654 90.088796 0.489560 87.604038 -1.190840 1.118725 3.315913 -3.426322 -4.680531 4.122391 2.327309 11.435008 -9.224020 0.000000 -0.000000 0.000000 -1.633259 -3.563753 -5.902598 0.981756 -4.833240 12.025833 3.033151 -8.125313 -5.116144 0.000000 -0.000000 0.000000 -1.424274 1.227055 2.722837 1.311719 -2.449773 7.109863 -0.828666 0.298079 -3.062210 0.593907 6.975756 13.797324 1.785984 6.858406 22.994707 -26.100322 2.933575 -0.385739 -56.346622 -8.962003 16.346581 2.839676 -17.867700 3.260833 -3.314534 -9.454211 2.098780 28.235822 1.344986 0.575288 56.829207 8.915088 17.357604 -6.653117 17.010553 -0.091253 7.236527 7.409831 5.452968 
